<svg width="48" height="38" viewBox="0 0 48 38" fill="none" xmlns="http://www.w3.org/2000/svg">
<path d="M7.36597 3.38388C10.4253 1.94928 13.706 0.892324 17.1362 0.286963C17.1987 0.27528 17.2611 0.304477 17.2933 0.362873C17.7152 1.12979 18.1825 2.1303 18.5098 2.91669C22.1992 2.35222 25.8696 2.35222 29.4834 2.91669C29.8107 2.11282 30.295 1.12979 30.7188 0.362873C30.751 0.306425 30.8134 0.277228 30.8759 0.286963C34.3042 0.89039 37.5849 1.94734 40.6461 3.38388C40.6726 3.39556 40.6953 3.41504 40.7104 3.44033C46.9332 12.9413 48.6379 22.2087 47.8016 31.3613C47.7979 31.4061 47.7733 31.4489 47.7392 31.4761C43.6336 34.5574 39.6566 36.4281 35.7534 37.668C35.691 37.6875 35.6248 37.6641 35.585 37.6115C34.6617 36.323 33.8387 34.9643 33.133 33.5355C33.0914 33.4518 33.1312 33.3526 33.2163 33.3195C34.5217 32.8134 35.7648 32.1963 36.9605 31.4956C37.0551 31.4392 37.0627 31.3009 36.9757 31.2347C36.7241 31.042 36.4724 30.8415 36.2321 30.6391C36.1886 30.6021 36.128 30.5943 36.0769 30.6177C28.2214 34.283 19.7169 34.283 11.9541 30.6177C11.903 30.5924 11.8424 30.6002 11.797 30.6371C11.5567 30.8396 11.3051 31.042 11.0516 31.2347C10.9646 31.3009 10.9702 31.4392 11.0648 31.4956C12.2605 32.2099 13.5036 32.8134 14.811 33.3175C14.8961 33.3506 14.9339 33.4518 14.8923 33.5355C14.1715 34.9623 13.3485 36.321 12.4422 37.6096C12.4043 37.6641 12.3363 37.6875 12.2738 37.668C8.35173 36.4281 4.37476 34.5574 0.269138 31.4761C0.233173 31.4489 0.210457 31.408 0.206669 31.3632C-0.794167 20.7819 1.88302 11.5904 7.30357 3.44226C7.31682 3.41504 7.33947 3.39556 7.36597 3.38388ZM31.96 25.7883C34.325 25.7883 36.2737 23.5693 36.2737 20.8442C36.2737 18.119 34.3628 15.9 31.96 15.9C29.5383 15.9 27.6084 18.1385 27.6462 20.8442C27.6462 23.5693 29.5572 25.7883 31.96 25.7883ZM16.0105 25.7883C18.3755 25.7883 20.3242 23.5693 20.3242 20.8442C20.3242 18.119 18.4133 15.9 16.0105 15.9C13.5887 15.9 11.6589 18.1385 11.6967 20.8442C11.6967 23.5693 13.5887 25.7883 16.0105 25.7883Z" fill="white"/>
</svg>
