<svg width="36" height="36" viewBox="0 0 36 36" fill="none" xmlns="http://www.w3.org/2000/svg">
<path d="M18.2236 3.95349C22.8832 3.95349 23.4657 3.95349 25.3587 4.09911C30.1639 4.24472 32.3481 6.57453 32.4937 11.2342C32.6393 13.1271 32.6393 13.564 32.6393 18.2236C32.6393 22.8832 32.6393 23.4657 32.4937 25.213C32.3481 29.8727 30.0183 32.2025 25.3587 32.3481C23.4657 32.4937 23.0288 32.4937 18.2236 32.4937C13.564 32.4937 12.9815 32.4937 11.2342 32.3481C6.42892 32.2025 4.24472 29.8727 4.09911 25.213C3.95349 23.3201 3.95349 22.8832 3.95349 18.2236C3.95349 13.564 3.95349 12.9815 4.09911 11.2342C4.24472 6.57453 6.57453 4.24472 11.2342 4.09911C12.9815 3.95349 13.564 3.95349 18.2236 3.95349ZM18.2236 0.75C13.4184 0.75 12.8359 0.75 11.0885 0.895613C4.68156 1.18684 1.18684 4.68156 0.895613 11.0885C0.75 12.8359 0.75 13.4184 0.75 18.2236C0.75 23.0288 0.75 23.6113 0.895613 25.3587C1.18684 31.7656 4.68156 35.2604 11.0885 35.5516C12.8359 35.6972 13.4184 35.6972 18.2236 35.6972C23.0288 35.6972 23.6113 35.6972 25.3587 35.5516C31.7656 35.2604 35.2604 31.7656 35.5516 25.3587C35.6972 23.6113 35.6972 23.0288 35.6972 18.2236C35.6972 13.4184 35.6972 12.8359 35.5516 11.0885C35.2604 4.68156 31.7656 1.18684 25.3587 0.895613C23.6113 0.75 23.0288 0.75 18.2236 0.75ZM18.2236 9.19557C13.2727 9.19557 9.19557 13.2727 9.19557 18.2236C9.19557 23.1745 13.2727 27.2516 18.2236 27.2516C23.1745 27.2516 27.2516 23.1745 27.2516 18.2236C27.2516 13.2727 23.1745 9.19557 18.2236 9.19557ZM18.2236 24.0481C15.0201 24.0481 12.3991 21.4271 12.3991 18.2236C12.3991 15.0201 15.0201 12.3991 18.2236 12.3991C21.4271 12.3991 24.0481 15.0201 24.0481 18.2236C24.0481 21.4271 21.4271 24.0481 18.2236 24.0481ZM27.5429 6.86576C26.3779 6.86576 25.5043 7.73944 25.5043 8.90435C25.5043 10.0693 26.3779 10.9429 27.5429 10.9429C28.7078 10.9429 29.5814 10.0693 29.5814 8.90435C29.5814 7.73944 28.7078 6.86576 27.5429 6.86576Z" fill="white"/>
</svg>
