<svg width="1041" height="380" viewBox="0 0 1041 380" fill="none" xmlns="http://www.w3.org/2000/svg">
<path d="M193.308 301.124C170.991 301.124 151.408 296.195 134.561 286.335C117.932 276.476 105.023 262.672 95.8335 244.925C86.644 226.959 82.0493 205.926 82.0493 181.825C82.0493 157.505 86.644 136.471 95.8335 118.724C105.023 100.977 117.932 87.2836 134.561 77.6432C151.189 67.7837 170.772 62.854 193.308 62.854C215.844 62.854 235.427 67.7837 252.055 77.6432C268.684 87.2836 281.593 100.977 290.783 118.724C299.972 136.471 304.567 157.395 304.567 181.496C304.567 205.816 299.972 226.959 290.783 244.925C281.593 262.672 268.684 276.476 252.055 286.335C235.427 296.195 215.844 301.124 193.308 301.124ZM193.308 264.973C214.531 264.973 231.051 257.633 242.866 242.953C254.681 228.274 260.588 207.898 260.588 181.825C260.588 155.533 254.681 135.157 242.866 120.696C231.27 106.236 214.75 99.0054 193.308 99.0054C172.085 99.0054 155.565 106.236 143.75 120.696C131.935 135.157 126.028 155.533 126.028 181.825C126.028 207.898 131.935 228.274 143.75 242.953C155.565 257.633 172.085 264.973 193.308 264.973Z" fill="#FF9F9C"/>
<path d="M366.976 300.467C353.848 300.467 347.284 293.675 347.284 280.091V84.5448C347.284 77.7527 348.925 72.6039 352.207 69.0983C355.707 65.3736 360.193 63.5113 365.663 63.5113C370.695 63.5113 374.415 64.4972 376.822 66.4691C379.447 68.2219 382.51 71.2893 386.011 75.6713L503.177 227.836V83.5589C503.177 70.1938 509.741 63.5113 522.869 63.5113C535.778 63.5113 542.233 70.1938 542.233 83.5589V280.748C542.233 286.883 540.701 291.703 537.638 295.209C534.575 298.714 530.418 300.467 525.167 300.467C520.134 300.467 516.086 299.481 513.023 297.509C510.179 295.537 507.006 292.36 503.506 287.978L386.339 135.485V280.091C386.339 293.675 379.885 300.467 366.976 300.467Z" fill="#FF9F9C"/>
<path d="M615.108 297.838C600.23 297.838 592.791 290.388 592.791 275.49V88.4886C592.791 73.5899 600.23 66.1405 615.108 66.1405H732.274C743.652 66.1405 749.341 71.618 749.341 82.5729C749.341 93.9661 743.652 99.6626 732.274 99.6626H633.159V163.42H725.054C736.431 163.42 742.12 169.008 742.12 180.182C742.12 191.356 736.431 196.943 725.054 196.943H633.159V264.316H732.274C743.652 264.316 749.341 269.903 749.341 281.077C749.341 292.251 743.652 297.838 732.274 297.838H615.108Z" fill="#FF9F9C"/>
<path d="M865.166 301.124C850.506 301.124 836.175 299.481 822.172 296.195C808.388 292.908 796.354 287.978 786.07 281.405C781.038 278.119 777.975 274.066 776.881 269.245C775.787 264.425 776.115 259.934 777.865 255.771C779.835 251.389 782.788 248.431 786.727 246.897C790.884 245.144 795.588 245.911 800.839 249.198C810.466 254.894 820.641 259.057 831.362 261.686C842.083 264.316 853.351 265.63 865.166 265.63C882.451 265.63 895.032 262.782 902.909 257.085C910.785 251.17 914.724 243.611 914.724 234.409C914.724 226.74 911.879 220.715 906.191 216.333C900.721 211.951 891.203 208.336 877.637 205.488L841.536 197.929C800.402 189.165 779.835 168.022 779.835 134.499C779.835 120.039 783.664 107.441 791.322 96.7048C798.979 85.969 809.591 77.6432 823.157 71.7275C836.722 65.8118 852.366 62.854 870.089 62.854C883.217 62.854 895.688 64.4972 907.503 67.7837C919.318 71.0702 929.93 75.8904 939.338 82.2443C943.714 85.3117 946.34 89.1459 947.215 93.747C948.09 98.129 947.543 102.292 945.574 106.236C943.605 109.96 940.432 112.589 936.056 114.123C931.899 115.438 926.976 114.452 921.288 111.165C913.192 106.564 904.987 103.278 896.673 101.306C888.358 99.334 879.388 98.348 869.761 98.348C854.664 98.348 842.848 101.525 834.315 107.879C825.782 114.233 821.516 122.559 821.516 132.856C821.516 140.744 824.141 147.098 829.392 151.918C834.644 156.519 843.614 160.134 856.305 162.763L892.078 170.322C913.739 174.923 929.821 182.153 940.323 192.013C951.044 201.872 956.405 215.018 956.405 231.451C956.405 245.254 952.685 257.414 945.246 267.931C937.807 278.448 927.195 286.664 913.411 292.579C899.845 298.276 883.764 301.124 865.166 301.124Z" fill="#FF9F9C"/>
<path d="M233.658 173.627C232.738 174.865 232.585 176.142 233.121 177.419C233.849 179.469 234.194 181.636 234.194 183.919C234.194 186.24 234.156 188.484 234.002 190.651C234.002 192.817 233.964 194.984 233.888 197.15C233.811 199.317 233.696 201.484 233.581 203.65C233.581 205.082 233.543 206.552 233.466 207.983C233.389 209.415 233.351 210.885 233.351 212.317C233.351 213.593 233.351 215.025 233.351 216.534C233.351 218.043 233.696 219.397 234.424 220.558C235.267 221.834 236.301 222.647 237.527 222.918C238.753 223.227 239.903 223.072 240.975 222.492C242.048 221.912 242.815 221.061 243.313 219.9C243.811 218.739 243.772 217.501 243.236 216.224V215.76V211.233C243.236 209.802 243.236 208.409 243.313 207.094C243.389 205.817 243.428 204.501 243.428 203.225C243.581 200.903 243.696 198.582 243.772 196.261C243.811 193.978 243.849 191.657 243.849 189.335C244.002 187.053 244.041 184.615 243.964 182.1C243.887 179.547 243.428 177.225 242.585 175.059C242.163 173.743 241.435 172.737 240.439 172.002C239.443 171.306 238.217 171.074 236.799 171.345C235.65 171.654 234.615 172.428 233.658 173.627ZM237.872 140.393C236.569 141.244 235.765 142.173 235.497 143.179C235.343 143.643 235.267 144.223 235.267 144.92C235.267 146.506 235.727 147.744 236.569 148.595C236.991 149.06 237.336 149.33 237.642 149.485C238.792 150.22 239.941 150.452 241.09 150.22C242.201 150.027 243.159 149.563 243.849 148.827C245.42 147.512 245.88 145.887 245.152 143.837C244.424 141.825 243.274 140.509 241.703 139.929C240.554 139.503 239.29 139.658 237.872 140.393ZM354.038 186.085C352.812 183.803 351.777 181.172 350.934 178.309C350.053 175.407 349.134 172.583 348.138 169.836C347.141 167.089 345.417 165.077 343.004 163.762C340.705 162.485 338.521 162.098 336.452 162.601C334.383 163.104 332.429 164.032 330.667 165.386C328.866 166.779 327.257 168.482 325.839 170.493C324.383 172.505 323.157 174.401 322.161 176.142C321.012 177.999 320.016 179.818 319.173 181.559C318.33 183.261 317.449 185.079 316.606 186.975C316.606 186.82 316.567 186.666 316.491 186.511C316.414 186.395 316.376 186.163 316.376 185.892C316.223 182.139 316.184 178.464 316.261 174.943C316.338 171.383 316.453 167.747 316.606 163.994C316.606 160.666 316.606 157.262 316.606 153.702C316.606 150.182 316.223 146.738 315.533 143.411C314.958 140.973 314 138.459 312.621 135.944C311.28 133.429 309.211 131.843 306.529 131.262C302.775 130.566 299.556 131.262 296.874 133.429C294.154 135.596 291.702 137.994 289.557 140.587C287.143 143.643 284.959 146.854 283.005 150.22C281.089 153.625 279.25 157.068 277.565 160.512C275.534 164.303 273.695 168.095 271.971 171.886C270.247 175.717 268.599 179.508 267.028 183.261L265.764 185.892V184.344C265.764 183.068 265.726 181.713 265.649 180.359C265.573 178.966 265.688 177.844 265.956 176.993C266.53 175.562 266.454 174.285 265.764 173.202C265.036 172.118 264.078 171.345 262.852 170.919C261.626 170.493 260.4 170.532 259.213 171.035C257.987 171.538 257.105 172.505 256.531 173.976C256.109 175.407 255.879 176.839 255.879 178.309C255.879 179.74 255.879 181.172 255.879 182.642C256.033 184.344 256.071 186.047 255.994 187.71C255.918 189.374 255.803 191.076 255.649 192.817C255.381 196.57 255.113 200.207 254.807 203.766C254.538 207.287 254.538 210.924 254.807 214.677C254.96 216.147 255.42 217.308 256.186 218.159C256.99 219.01 257.91 219.552 258.983 219.784C260.055 220.016 261.09 219.822 262.086 219.242C263.082 218.662 263.887 217.733 264.461 216.418C268.753 205.585 273.005 194.906 277.22 184.344C281.434 173.821 286.568 163.568 292.583 153.586C294.154 151.149 295.802 148.557 297.602 145.81C299.403 143.063 301.51 141.322 303.924 140.587C304.499 140.471 304.997 141.206 305.457 142.869C305.878 144.533 306.146 146.7 306.3 149.369C306.453 152.039 306.529 154.979 306.606 158.152C306.683 161.324 306.721 164.342 306.721 167.244C306.721 170.145 306.683 172.699 306.606 174.943C306.529 177.187 306.529 178.58 306.529 179.16C306.529 181.636 306.568 184.073 306.721 186.511C306.874 188.987 307.066 191.424 307.372 193.901C307.64 195.912 308.139 197.847 308.752 199.627C309.403 201.445 310.361 203.147 311.663 204.734C312.66 205.894 314.039 206.436 315.725 206.359C317.449 206.281 318.675 205.507 319.403 204.076C320.973 200.594 322.583 197.189 324.23 193.784C325.839 190.38 327.525 187.053 329.249 183.725C329.671 182.835 330.207 181.752 330.858 180.475C331.51 179.16 332.238 177.883 333.004 176.684C333.808 175.446 334.613 174.44 335.494 173.627C336.337 172.854 337.18 172.428 338.061 172.428C338.751 173.163 339.287 174.014 339.67 174.943C340.015 175.871 340.322 176.761 340.628 177.651C341.203 179.237 341.701 180.901 342.122 182.642C342.544 184.344 343.119 186.008 343.847 187.594C345.149 191.231 347.103 194.21 349.747 196.609C352.39 198.969 355.647 200.168 359.517 200.168C361.087 200.168 362.313 199.665 363.156 198.659C363.999 197.653 364.459 196.531 364.459 195.293C364.459 194.094 364.076 192.933 363.386 191.85C362.658 190.767 361.509 190.225 359.938 190.225C357.218 189.761 355.264 188.407 354.038 186.085ZM440.817 186.627C435.683 191.192 429.898 195.139 423.461 198.427C418.442 201.058 414.764 201.716 412.389 200.516C410.052 199.278 409.209 195.719 409.937 189.761C410.052 187.478 410.205 185.157 410.358 182.835C410.512 180.553 410.205 178.309 409.515 176.142C408.941 174.092 407.868 172.892 406.297 172.428C404.994 172.002 403.615 171.925 402.198 172.235C402.198 172.08 402.159 172.002 402.083 172.002C402.006 172.002 402.006 171.925 402.006 171.809C401.125 168.482 399.554 165.619 397.255 163.22C394.995 160.86 391.968 160.009 388.252 160.744C385.11 161.324 382.313 162.794 379.899 165.193C377.447 167.553 375.378 169.991 373.654 172.428C369.363 178.077 366.221 184.499 364.229 191.734C363.808 193.32 363.463 194.945 363.156 196.609C362.888 198.272 362.812 199.897 362.926 201.484C362.926 203.07 363.156 204.579 363.578 206.01C364.459 208.757 366.298 210.344 369.172 210.808C371.739 211.233 374.076 211.079 376.145 210.344C378.213 209.647 380.167 208.525 382.045 207.016C383.884 205.469 385.531 203.728 386.987 201.677C388.405 199.665 389.746 197.731 391.048 195.835C391.776 194.829 392.428 193.862 393.079 192.933C393.73 191.966 394.42 190.999 395.11 189.993L397.064 187.401C397.179 187.091 397.332 186.898 397.485 186.743C397.638 186.588 397.753 186.395 397.906 186.085L398.558 185.428L400.473 183.493C400.359 184.654 400.244 185.814 400.167 186.975C400.09 188.136 399.975 189.258 399.86 190.419C399.707 192.895 399.746 195.293 399.937 197.692C400.167 200.052 400.857 202.257 402.006 204.308C404.152 208.061 407.102 210.227 410.895 210.808C414.688 211.388 418.442 211.001 422.159 209.725C426.143 208.254 429.936 206.397 433.538 204.076C437.101 201.755 440.626 199.317 444.036 196.725C446.909 194.404 449.744 192.082 452.618 189.761C455.491 187.478 458.326 185.079 461.2 182.642C461.621 182.178 462.081 181.791 462.503 181.443C462.924 181.094 463.422 180.669 463.997 180.243C465.146 179.508 465.683 178.386 465.606 176.877C465.529 175.368 465.07 174.169 464.227 173.318C463.192 172.157 462.081 171.615 460.893 171.693C459.667 171.77 458.48 172.235 457.33 173.086C451.468 177.574 445.99 182.1 440.817 186.627ZM372.811 201.058V200.826C372.811 197.924 373.233 195.216 374.114 192.701C374.957 190.186 375.953 187.826 377.102 185.66C377.83 184.344 378.558 183.068 379.363 181.752C380.129 180.475 380.972 179.237 381.815 178.077C382.121 177.496 382.696 176.684 383.539 175.6C384.382 174.517 385.378 173.511 386.451 172.66C387.524 171.809 388.596 171.267 389.669 171.035C390.742 170.803 391.47 171.306 391.891 172.428C391.776 172.157 391.815 172.312 392.006 172.892C392.236 173.473 392.389 173.898 392.543 174.169C392.696 174.749 393.041 175.484 393.615 176.336C392.466 177.496 390.972 179.431 389.133 182.1C387.255 184.77 385.34 187.478 383.309 190.225C381.317 192.972 379.401 195.409 377.524 197.576C375.685 199.743 374.152 200.903 373.041 201.058H372.811ZM505.528 204.385C503.881 204.927 502.272 205.507 500.701 206.242C500.548 202.219 500.279 198.195 499.935 194.21C499.59 190.264 498.9 186.395 497.904 182.642C497.176 179.74 496.027 176.916 494.456 174.169C492.885 171.422 490.816 169.642 488.249 168.752C488.364 168.482 488.441 168.056 488.441 167.476C488.172 164.148 487.598 160.86 486.755 157.61C485.874 154.36 484.035 151.729 481.161 149.679C479.169 148.092 476.87 147.551 474.303 148.054C471.736 148.595 469.437 149.485 467.445 150.762C462.847 153.973 458.863 158.152 455.53 163.336C452.158 168.559 449.706 173.743 448.135 178.928C447.407 181.404 446.986 183.919 446.832 186.511C446.679 189.142 447.177 191.579 448.327 193.901C449.898 197.228 452.196 198.814 455.185 198.659C458.212 198.505 461.008 197.653 463.575 196.067C464.84 195.177 466.449 193.784 468.403 191.85C470.318 189.877 472.311 187.942 474.418 185.969C476.487 184.035 478.479 182.294 480.395 180.785C482.349 179.276 483.958 178.425 485.222 178.309H485.452C485.452 178.425 485.529 178.502 485.682 178.502C487.1 180.669 488.096 183.029 488.671 185.544C489.245 188.097 489.667 190.573 489.973 193.011C490.241 195.061 490.433 197.112 490.51 199.201C490.548 201.29 490.663 203.496 490.816 205.817V210.808C483.958 214.251 477.521 218.159 471.506 222.492C464.227 227.676 457.445 233.673 451.238 240.483C444.993 247.253 440.396 254.991 437.407 263.658C435.837 267.836 434.879 272.208 434.611 276.773C434.304 281.3 434.534 285.827 435.262 290.314C435.952 294.648 437.407 298.865 439.553 302.966C441.699 307.106 444.84 310.085 448.978 311.981C451.277 312.986 453.614 313.412 456.066 313.257C458.48 313.141 460.893 312.638 463.231 311.748C465.606 310.897 467.866 309.698 470.012 308.189C472.158 306.68 474.073 305.094 475.797 303.508C479.514 300.064 482.617 296.041 485.146 291.514C487.636 286.949 489.897 282.306 491.889 277.508C495.758 267.991 498.172 258.086 499.168 247.834C500.164 237.581 500.701 227.328 500.701 217.075C501.122 216.805 501.544 216.611 501.965 216.534C502.387 216.456 502.77 216.302 503.038 215.992C503.613 215.721 504.111 215.489 504.532 215.334C504.992 215.218 505.49 214.986 506.065 214.677C506.18 214.677 506.333 214.677 506.486 214.599C506.601 214.522 506.754 214.483 506.908 214.483C507.061 214.329 507.176 214.251 507.329 214.251C507.482 214.251 507.636 214.174 507.751 214.058C509.206 213.477 510.854 212.974 512.693 212.51C513.996 212.085 514.992 211.349 515.72 210.266C516.409 209.183 516.639 207.906 516.333 206.475C516.065 205.159 515.298 204.115 514.111 203.302C512.884 202.528 511.62 202.335 510.356 202.76C508.747 203.341 507.138 203.882 505.528 204.385ZM457.254 188.794C457.177 188.871 457.062 188.91 456.909 188.91C455.645 187.478 455.3 185.195 455.951 182.1C456.602 178.966 457.79 175.794 459.591 172.544C461.392 169.294 463.46 166.315 465.836 163.568C468.173 160.821 470.433 158.964 472.579 158.036C474.725 157.107 476.564 157.378 478.058 158.887C479.552 160.434 480.242 163.916 480.088 169.41C477.79 170.726 475.759 172.235 473.958 173.976C472.196 175.678 470.433 177.458 468.709 179.276C466.985 181.094 465.261 182.835 463.46 184.576C461.66 186.317 459.706 187.672 457.56 188.677C457.407 188.677 457.292 188.716 457.254 188.794ZM478.249 283.815C476.027 287.993 473.345 291.746 470.204 295.073C468.786 296.814 467.292 298.168 465.721 299.174C462.005 302.076 458.786 303.391 456.066 303.082C453.346 302.811 451.085 301.612 449.285 299.523C447.522 297.433 446.181 294.764 445.338 291.514C444.457 288.264 444.036 285.169 444.036 282.306C444.342 273.755 446.334 266.095 450.051 259.324C452.043 255.417 454.342 251.973 456.909 248.917C459.476 245.899 462.426 242.843 465.721 239.825C469.591 236.227 473.537 233.016 477.636 230.191C481.698 227.367 486.104 224.659 490.816 222.066C490.663 224.968 490.548 227.831 490.51 230.733C490.433 233.635 490.241 236.498 489.973 239.399C489.513 244.738 488.9 250.078 488.019 255.417C487.176 260.756 485.797 265.979 483.958 271.008C482.387 275.342 480.471 279.598 478.249 283.815ZM518.593 173.627C517.674 174.865 517.482 176.142 518.057 177.419C518.785 179.469 519.13 181.636 519.13 183.919C519.13 186.24 519.053 188.484 518.938 190.651C518.938 192.817 518.9 194.984 518.823 197.15C518.746 199.317 518.631 201.484 518.478 203.65C518.478 205.082 518.478 206.552 518.402 207.983C518.325 209.415 518.287 210.885 518.287 212.317C518.287 213.593 518.287 215.025 518.287 216.534C518.287 218.043 518.632 219.397 519.359 220.558C520.202 221.834 521.237 222.647 522.463 222.918C523.689 223.227 524.838 223.072 525.911 222.492C526.984 221.912 527.75 221.061 528.248 219.9C528.746 218.739 528.708 217.501 528.133 216.224V215.76V211.233C528.133 209.802 528.171 208.409 528.248 207.094C528.325 205.817 528.363 204.501 528.363 203.225C528.516 200.903 528.593 198.582 528.67 196.261C528.746 193.978 528.784 191.657 528.784 189.335C528.938 187.053 528.976 184.615 528.899 182.1C528.823 179.547 528.363 177.225 527.52 175.059C527.06 173.743 526.371 172.737 525.375 172.002C524.34 171.306 523.152 171.074 521.697 171.345C520.547 171.654 519.513 172.428 518.593 173.627ZM522.769 140.393C521.505 141.244 520.7 142.173 520.432 143.179C520.279 143.643 520.202 144.223 520.202 144.92C520.202 146.506 520.624 147.744 521.505 148.595C521.926 149.06 522.271 149.33 522.578 149.485C523.727 150.22 524.838 150.452 525.988 150.22C527.137 150.027 528.057 149.563 528.784 148.827C530.355 147.512 530.777 145.887 530.087 143.837C529.359 141.825 528.21 140.509 526.639 139.929C525.49 139.503 524.225 139.658 522.769 140.393ZM597.863 195.719C596.177 192.469 594.722 189.18 593.572 185.776C592.423 182.371 591.465 179.121 590.699 176.026C589.894 172.931 589.09 170.339 588.208 168.327C587.212 165.889 585.756 163.916 583.841 162.485C581.887 161.053 579.549 160.589 576.868 161.169C574.722 161.595 572.768 162.601 571.044 164.11C569.358 165.619 567.749 167.166 566.331 168.752C563.611 171.925 561.159 175.214 558.937 178.618C556.715 182.023 554.531 185.505 552.385 189.142C550.968 191.308 549.742 193.398 548.746 195.409V192.585C549.014 189.258 549.359 186.008 549.704 182.835C550.048 179.663 550.585 176.258 551.313 172.66C551.619 171.345 551.504 170.107 551.006 168.869C550.508 167.63 549.512 166.818 548.094 166.392C546.945 166.083 545.719 166.238 544.34 166.818C542.999 167.398 542.156 168.327 541.888 169.642C541.16 173.395 540.585 177.148 540.164 180.901C539.742 184.654 539.397 188.407 539.091 192.16C538.823 195.487 538.554 198.969 538.324 202.683C538.133 206.359 538.363 209.841 539.091 213.168C539.665 215.334 541.006 216.573 543.152 216.843C545.297 217.153 546.945 216.418 548.094 214.677C551.121 210.227 553.956 205.662 556.677 201.058C559.397 196.415 562.194 191.811 565.067 187.169C566.906 184.306 568.784 181.443 570.623 178.618C572.5 175.794 574.645 173.589 577.059 172.002L577.289 171.809C577.404 171.809 577.481 171.77 577.481 171.693C577.481 171.615 577.557 171.577 577.71 171.577C578.438 170.996 578.975 171.229 579.32 172.235C579.664 173.24 579.933 174.092 580.086 174.827C580.507 176.413 580.929 178.038 581.35 179.702C581.772 181.365 582.27 182.99 582.844 184.576C584.147 188.639 585.641 192.624 587.365 196.609C589.09 200.594 591.35 204.231 594.223 207.558C595.641 209.144 597.25 210.382 598.936 211.349C600.66 212.278 602.614 212.897 604.76 213.168C606.024 213.477 607.173 213.052 608.17 211.968C609.166 210.885 609.664 209.725 609.664 208.409C609.664 207.248 609.051 206.359 607.863 205.701C606.637 205.043 605.526 204.385 604.53 203.65C601.81 201.638 599.587 198.969 597.863 195.719ZM682.191 186.627C677.057 191.192 671.271 195.139 664.835 198.427C659.816 201.058 656.138 201.716 653.762 200.516C651.425 199.278 650.582 195.719 651.31 189.761C651.425 187.478 651.578 185.157 651.732 182.835C651.885 180.553 651.578 178.309 650.889 176.142C650.314 174.092 649.241 172.892 647.67 172.428C646.368 172.002 644.989 171.925 643.571 172.235C643.571 172.08 643.533 172.002 643.456 172.002C643.379 172.002 643.379 171.925 643.379 171.809C642.498 168.482 640.927 165.619 638.629 163.22C636.368 160.86 633.341 160.009 629.625 160.744C626.483 161.324 623.686 162.794 621.273 165.193C618.821 167.553 616.752 169.991 615.028 172.428C610.736 178.077 607.595 184.499 605.603 191.734C605.181 193.32 604.836 194.945 604.53 196.609C604.262 198.272 604.185 199.897 604.3 201.484C604.3 203.07 604.53 204.579 604.951 206.01C605.832 208.757 607.671 210.344 610.545 210.808C613.112 211.233 615.449 211.079 617.518 210.344C619.587 209.647 621.541 208.525 623.418 207.016C625.257 205.469 626.905 203.728 628.361 201.677C629.778 199.665 631.119 197.731 632.422 195.835C633.15 194.829 633.801 193.862 634.452 192.933C635.104 191.966 635.793 190.999 636.483 189.993L638.437 187.401C638.552 187.091 638.705 186.898 638.858 186.743C639.012 186.588 639.127 186.395 639.28 186.085L639.931 185.428L641.847 183.493C641.732 184.654 641.617 185.814 641.54 186.975C641.464 188.136 641.349 189.258 641.234 190.419C641.081 192.895 641.119 195.293 641.31 197.692C641.54 200.052 642.23 202.257 643.379 204.308C645.525 208.061 648.475 210.227 652.268 210.808C656.061 211.388 659.816 211.001 663.532 209.725C667.517 208.254 671.31 206.397 674.911 204.076C678.474 201.755 681.999 199.317 685.409 196.725C688.282 194.404 691.118 192.082 693.991 189.761C696.865 187.478 699.7 185.079 702.573 182.642C702.995 182.178 703.455 181.791 703.876 181.443C704.297 181.094 704.795 180.669 705.37 180.243C706.52 179.508 707.056 178.386 706.979 176.877C706.903 175.368 706.443 174.169 705.6 173.318C704.566 172.157 703.455 171.615 702.267 171.693C701.041 171.77 699.853 172.235 698.704 173.086C692.842 177.574 687.363 182.1 682.191 186.627ZM614.185 201.058V200.826C614.185 197.924 614.606 195.216 615.487 192.701C616.33 190.186 617.326 187.826 618.476 185.66C619.204 184.344 619.932 183.068 620.736 181.752C621.503 180.475 622.345 179.237 623.188 178.077C623.495 177.496 624.069 176.684 624.912 175.6C625.755 174.517 626.751 173.511 627.824 172.66C628.897 171.809 629.97 171.267 631.042 171.035C632.115 170.803 632.843 171.306 633.265 172.428C633.15 172.157 633.188 172.312 633.38 172.892C633.609 173.473 633.763 173.898 633.916 174.169C634.069 174.749 634.414 175.484 634.989 176.336C633.839 177.496 632.345 179.431 630.506 182.1C628.629 184.77 626.713 187.478 624.683 190.225C622.69 192.972 620.775 195.409 618.897 197.576C617.058 199.743 615.526 200.903 614.415 201.058H614.185ZM694.757 165.851C692.689 165.773 691.156 166.508 690.121 168.095C689.585 169.41 689.279 170.996 689.279 172.892C689.01 174.904 688.857 176.955 688.857 179.044C688.857 181.133 688.857 183.222 688.857 185.234C689.01 190.302 689.049 195.371 689.049 200.516C689.049 205.623 689.202 210.73 689.508 215.76C689.508 217.23 689.93 218.391 690.773 219.242C691.654 220.093 692.612 220.635 693.685 220.867C694.757 221.099 695.83 220.906 696.903 220.325C697.976 219.745 698.704 218.817 699.163 217.501C700.275 214.483 701.309 211.427 702.267 208.409C703.186 205.391 704.221 202.335 705.37 199.317C706.52 196.415 707.707 193.707 708.895 191.192C710.121 188.677 711.5 186.008 713.109 183.261C714.68 180.824 716.289 178.502 717.937 176.336C719.546 174.169 721.385 172.08 723.377 170.068C725.408 168.056 727.477 166.47 729.622 165.309C730.772 164.574 731.883 164.226 733.032 164.226H733.262C734.833 163.916 736.289 163.645 737.668 163.336C739.009 163.065 739.929 162.253 740.35 160.976C740.618 159.66 740.465 158.345 739.929 157.068C739.354 155.753 738.396 154.979 737.132 154.67C733.684 153.818 730.427 154.051 727.362 155.443C724.297 156.797 721.462 158.577 718.895 160.744C716.443 162.756 714.221 165.038 712.228 167.553C710.236 170.107 708.282 172.737 706.443 175.484C703.569 179.818 701.079 184.422 698.934 189.335C698.627 185.428 698.627 181.559 698.934 177.651C698.934 175.639 699.087 173.898 699.355 172.428C699.661 170.996 699.508 169.72 698.934 168.559C698.206 166.818 696.826 165.928 694.757 165.851ZM780.234 204.927C780.234 203.65 780.234 202.374 780.234 201.135C780.234 199.936 780.158 198.659 780.043 197.344C779.889 190.419 779.468 183.338 778.74 176.142C778.472 173.086 778.05 169.913 777.552 166.586C777.054 163.259 775.752 160.396 773.606 157.919C772.61 156.759 771.461 156.217 770.158 156.294C768.893 156.372 767.667 156.836 766.518 157.726C764.526 159.312 762.917 161.401 761.691 163.994C760.465 166.586 759.277 168.985 758.166 171.151C757.706 171.886 756.978 173.395 755.905 175.678C754.833 177.999 753.645 180.321 752.342 182.642C751.078 184.925 749.775 186.936 748.511 188.6C747.208 190.264 746.289 190.844 745.714 190.419C745.139 189.993 744.718 189.297 744.411 188.368C744.143 187.439 743.952 186.434 743.875 185.35C743.798 184.267 743.76 183.222 743.76 182.178C743.76 181.172 743.76 180.398 743.76 179.818C743.76 178.386 743.798 176.955 743.875 175.6C743.952 174.208 743.99 172.815 743.99 171.345C743.837 170.068 743.377 168.907 742.611 167.901C741.806 166.895 740.695 166.392 739.277 166.392C737.975 166.238 736.749 166.625 735.638 167.553C734.488 168.52 733.99 169.72 734.105 171.151C734.258 174.595 734.22 178.115 734.028 181.636C733.799 185.195 734.258 188.639 735.408 191.927C736.136 193.978 737.17 195.758 738.511 197.344C739.89 198.969 741.538 199.975 743.568 200.4C746.978 200.981 750.197 199.975 753.223 197.344C755.944 195.061 758.166 192.237 759.967 188.91C761.767 185.582 763.453 182.41 765.024 179.392C765.599 178.231 766.173 177.109 766.748 176.026C767.284 174.943 767.859 173.821 768.434 172.66L769.085 177.844C769.392 180.475 769.583 183.184 769.736 185.969C769.89 188.794 770.005 191.579 770.158 194.326C770.311 196.802 770.388 199.201 770.388 201.6C770.388 203.96 770.388 206.397 770.388 208.835C769.507 209.415 768.893 209.802 768.434 209.918C763.874 212.51 759.545 215.567 755.484 219.01C751.384 222.492 747.553 226.167 743.99 230.075C740.273 234.254 736.825 238.742 733.684 243.5C730.542 248.259 727.822 253.25 725.523 258.473C723.531 262.922 721.921 267.643 720.695 272.556C719.508 277.431 719.086 282.344 719.546 287.258C719.814 290.16 720.466 292.945 721.462 295.615C722.458 298.285 723.837 300.683 725.523 302.772C727.247 304.862 729.316 306.564 731.768 307.841C734.182 309.156 736.979 309.814 740.12 309.814C745.714 309.659 750.541 307.763 754.603 304.049C758.702 300.374 762.15 296.311 765.024 291.823C770.311 283.002 773.874 273.446 775.752 263.116C777.591 252.786 778.893 242.572 779.621 232.474C779.736 229.572 779.889 226.709 780.043 223.885C780.158 221.099 780.234 218.236 780.234 215.334C782.265 214.329 784.372 213.671 786.594 213.4C788.778 213.09 790.962 212.974 793.107 212.974C794.104 212.974 795.176 212.51 796.326 211.659C797.475 210.808 798.126 209.725 798.28 208.409C798.28 206.978 797.82 205.817 796.862 204.927C795.943 204.076 794.832 203.496 793.567 203.225C789.276 203.07 784.832 203.65 780.234 204.927ZM755.56 287.916C754.986 288.806 754.411 289.695 753.76 290.624C753.108 291.553 752.419 292.404 751.729 293.139C750.273 294.725 748.626 296.157 746.787 297.472C744.909 298.749 742.994 299.484 741.001 299.639C738.856 299.909 736.94 299.523 735.293 298.439C733.645 297.356 732.343 295.847 731.347 293.99C730.197 291.978 729.508 289.889 729.278 287.8C729.086 285.71 729.124 283.505 729.393 281.222C729.699 276.58 730.695 272.014 732.419 267.449C734.105 262.884 736.136 258.589 738.396 254.565C743.683 245.319 750.427 236.923 758.587 229.417C762.457 225.974 766.288 222.995 770.158 220.558V224.659C769.736 234.331 768.855 244.119 767.476 254.024C766.135 263.89 763.3 273.175 759.009 281.842C757.859 284.163 756.71 286.175 755.56 287.916Z" fill="white"/>
</svg>
