<svg width="36" height="30" viewBox="0 0 36 30" fill="none" xmlns="http://www.w3.org/2000/svg">
<path d="M11.7406 29.1524C24.9288 29.1524 32.141 18.2262 32.141 8.75197C32.141 8.44154 32.1346 8.1327 32.1203 7.82506C33.5202 6.81308 34.7373 5.54991 35.6972 4.11264C34.4126 4.68341 33.0301 5.06777 31.5798 5.24107C33.06 4.35351 34.1967 2.94883 34.7329 1.27467C33.3473 2.09625 31.8131 2.69326 30.1802 3.01521C28.8714 1.62166 27.008 0.75 24.9463 0.75C20.9863 0.75 17.7751 3.9612 17.7751 7.91926C17.7751 8.48208 17.8382 9.02901 17.9607 9.55407C12.0021 9.25477 6.71809 6.4013 3.18215 2.06326C2.56567 3.12253 2.21072 4.35391 2.21072 5.66677C2.21072 8.15417 3.47668 10.3502 5.40165 11.6353C4.22552 11.5991 3.12054 11.2755 2.15428 10.7382C2.15269 10.768 2.15269 10.7982 2.15269 10.8296C2.15269 14.3023 4.62459 17.2015 7.90495 17.8585C7.30277 18.0227 6.6692 18.1109 6.01496 18.1109C5.55309 18.1109 5.10394 18.0648 4.66712 17.9817C5.57972 20.83 8.2269 22.9033 11.3654 22.9617C8.91096 24.8851 5.8194 26.031 2.46034 26.031C1.88201 26.031 1.31123 25.998 0.75 25.9316C3.92304 27.9651 7.69071 29.1524 11.7406 29.1524Z" fill="white"/>
</svg>
